<?xml version="1.0" standalone="no"?>
<!DOCTYPE svg PUBLIC "-//W3C//DTD SVG 20010904//EN"
 "http://www.w3.org/TR/2001/REC-SVG-20010904/DTD/svg10.dtd">
<svg version="1.0" xmlns="http://www.w3.org/2000/svg"
 width="700.000000pt" height="700.000000pt" viewBox="0 0 700.000000 700.000000"
 preserveAspectRatio="xMidYMid meet">
<metadata>
Created by potrace 1.14, written by Peter Selinger 2001-2017
</metadata>
<g transform="translate(0.000000,700.000000) scale(0.100000,-0.100000)"
fill="#000000" stroke="none">
<path d="M2630 6985 l-65 -10 -211 -290 c-173 -237 -216 -291 -240 -297 -16
-4 -74 -17 -129 -28 -106 -23 -199 -66 -227 -104 -17 -24 -17 -24 35 -47 45
-21 67 -24 157 -23 58 1 132 3 165 6 l60 5 290 -219 290 -220 65 8 c36 3 73 7
82 7 22 2 26 -4 -131 190 -179 221 -200 252 -194 278 8 30 15 32 241 76 15 3
32 6 37 7 95 23 100 22 192 -49 79 -60 91 -66 123 -61 19 3 45 6 58 6 12 0 22
4 22 10 0 5 -24 45 -54 87 -82 120 -79 105 -40 224 19 57 34 107 34 111 0 4
-15 5 -32 2 -18 -2 -43 -6 -56 -7 -25 -4 -34 -13 -110 -109 -30 -38 -61 -68
-70 -69 -10 -1 -28 -2 -42 -3 -14 -2 -56 -6 -95 -10 -205 -19 -222 -19 -238 4
-19 27 -15 41 68 250 117 296 114 289 96 287 -9 -1 -45 -6 -81 -12z"/>
<path d="M3497 6584 c-1 -1 -51 -4 -111 -7 -60 -4 -110 -8 -111 -9 -8 -9 -35
-102 -35 -120 0 -11 9 -36 21 -55 19 -30 25 -33 58 -29 20 3 60 8 89 11 28 3
73 7 100 10 262 27 665 21 942 -15 168 -22 159 -19 223 -83 38 -38 71 -84 90
-126 27 -57 31 -77 31 -146 0 -112 -34 -200 -122 -317 -226 -302 -769 -599
-1397 -763 -120 -32 -329 -78 -400 -89 -76 -11 -122 -19 -140 -22 -11 -2 -47
-6 -80 -10 -33 -3 -73 -8 -90 -10 -195 -23 -620 -23 -755 0 -14 3 -59 10 -100
16 -295 44 -532 153 -645 298 -147 187 -103 418 124 656 77 81 21 42 -112 -78
-243 -220 -504 -537 -576 -700 -178 -405 107 -751 744 -901 106 -25 117 -27
265 -49 157 -24 282 -31 550 -31 222 0 372 6 500 20 19 2 64 7 100 10 36 3 72
8 80 10 8 2 40 7 70 10 60 7 181 26 250 40 14 3 41 8 60 12 19 4 37 8 40 8 3
1 25 5 50 9 54 10 47 8 195 44 1000 243 1828 717 2072 1187 97 189 106 344 28
502 -78 159 -264 293 -605 438 -36 15 -80 34 -99 43 -39 16 -350 119 -384 126
-12 3 -67 16 -122 30 -55 13 -147 32 -205 41 -58 9 -116 18 -130 20 -69 11
-453 27 -463 19z"/>
<path d="M4270 4348 c-111 -50 -152 -68 -202 -88 -32 -12 -58 -25 -58 -29 1
-3 15 -15 33 -27 27 -17 777 -554 843 -603 35 -26 65 -77 66 -110 2 -59 -17
-70 -510 -308 -96 -45 -178 -83 -183 -83 -9 0 -125 40 -338 115 l-104 37 -101
-43 c-55 -23 -104 -45 -108 -49 -5 -3 79 -78 186 -165 l194 -159 1 -245 c1
-135 3 -246 5 -248 1 -2 53 18 114 44 l111 47 49 135 c27 75 62 170 77 212
l26 75 242 87 c133 47 287 102 341 122 125 44 165 45 199 6 26 -31 39 -92 33
-151 -2 -19 -7 -71 -11 -115 -3 -44 -8 -91 -10 -105 -2 -14 -6 -64 -10 -112
-3 -49 -8 -96 -9 -105 -2 -10 -7 -63 -11 -118 -3 -55 -8 -113 -10 -130 -9 -69
-14 -125 -21 -219 -6 -94 -6 -99 12 -92 114 43 284 122 289 135 10 25 202 552
247 676 48 135 117 323 128 350 4 11 31 85 59 165 29 80 55 151 59 158 4 8
112 67 241 133 228 116 290 156 361 232 45 48 112 159 103 168 -35 30 -245 45
-345 24 -64 -14 -319 -96 -460 -149 l-66 -25 -514 205 c-282 113 -532 214
-555 225 -23 10 -48 19 -55 19 -8 0 -18 4 -23 8 -6 5 -32 17 -60 27 -45 16
-69 26 -173 71 -38 16 -48 17 -82 2z"/>
<path d="M67 3963 c-3 -21 -8 -47 -10 -58 -4 -19 -21 -121 -32 -195 -15 -107
-20 -210 -20 -430 1 -267 6 -300 66 -421 98 -198 330 -377 645 -499 158 -61
444 -135 638 -166 21 -3 47 -7 58 -9 11 -3 46 -7 77 -10 31 -4 67 -8 81 -11
14 -2 50 -6 80 -9 30 -3 78 -7 105 -10 270 -26 761 -26 1090 -1 130 10 213 18
235 21 14 2 48 7 75 10 71 8 137 17 160 21 11 2 45 7 75 10 30 3 57 7 60 9 3
2 26 6 50 10 25 4 92 16 150 27 58 10 112 21 120 22 13 3 15 32 15 196 0 292
14 253 -155 431 -80 84 -156 165 -170 181 l-25 29 -105 -20 c-245 -47 -447
-77 -715 -105 -262 -28 -945 -29 -1080 -1 -11 2 -47 7 -80 10 -239 24 -521 92
-728 174 -424 169 -636 415 -646 746 -1 44 -4 81 -5 83 -2 1 -6 -14 -9 -35z"/>
<path d="M6972 3084 c-27 -100 -111 -258 -189 -355 -352 -434 -972 -801 -1828
-1084 -135 -44 -338 -105 -402 -120 -10 -2 -81 -20 -158 -40 -77 -19 -152 -37
-167 -40 -16 -3 -56 -12 -90 -20 -81 -18 -418 -77 -523 -91 -27 -3 -58 -8 -67
-9 -9 -2 -48 -7 -85 -10 -37 -4 -75 -9 -84 -10 -9 -2 -52 -6 -95 -10 -43 -4
-89 -8 -102 -10 -166 -27 -964 -27 -1182 -1 -19 3 -62 7 -95 11 -105 11 -129
14 -165 21 -62 11 -80 14 -102 18 -117 20 -216 41 -292 62 -50 14 -104 29
-121 34 -126 33 -376 138 -470 198 -27 17 -51 29 -52 28 -7 -6 59 -142 114
-235 111 -190 249 -368 308 -399 353 -180 655 -265 1125 -316 259 -28 927 -29
1115 -1 17 2 57 6 90 9 69 5 237 24 276 31 15 3 47 7 70 10 77 10 320 54 444
80 66 15 131 28 145 31 14 3 95 23 180 45 795 206 1475 529 1890 899 70 63
199 202 230 249 8 13 26 40 40 60 53 76 117 227 146 341 2 8 12 49 23 90 19
69 43 181 55 254 13 76 37 298 34 313 -2 9 -9 -6 -16 -33z"/>
<path d="M4643 678 l-33 -11 33 -28 c17 -16 71 -62 119 -102 117 -97 116 -104
-8 -153 l-95 -38 -47 19 c-51 20 -98 23 -113 8 -7 -7 4 -24 32 -52 l41 -43 -5
-64 c-5 -70 -10 -66 54 -48 11 3 18 8 16 11 -3 2 5 26 18 52 l24 48 102 27
c139 37 137 41 104 -144 -14 -80 -25 -147 -25 -151 0 -3 18 -1 41 5 38 10 44
16 75 83 63 135 101 218 119 260 13 29 28 46 49 54 91 36 137 62 156 86 13 16
17 30 11 36 -15 15 -81 12 -161 -7 l-75 -18 -183 91 c-101 50 -191 91 -200 90
-9 -1 -32 -6 -49 -11z"/>
<path d="M1660 546 c0 -9 139 -105 200 -139 177 -97 585 -241 830 -292 325
-68 492 -88 755 -89 133 0 378 10 450 19 22 3 78 10 125 16 47 6 123 17 170
25 47 7 103 16 125 20 49 7 156 31 161 36 1 2 5 21 7 41 4 31 -3 49 -35 99
l-39 61 -42 -7 c-23 -3 -53 -8 -67 -11 -14 -3 -38 -7 -55 -10 -16 -3 -41 -8
-55 -10 -57 -12 -76 -15 -188 -30 -170 -23 -179 -24 -272 -31 -47 -3 -107 -8
-135 -10 -67 -5 -496 -5 -565 0 -138 10 -246 20 -325 31 -231 31 -406 67 -610
126 -135 39 -390 133 -409 150 -10 9 -26 12 -26 5z"/>
</g>
</svg>
